<?xml version="1.0" standalone="no"?>
<!DOCTYPE svg PUBLIC "-//W3C//DTD SVG 20010904//EN"
 "http://www.w3.org/TR/2001/REC-SVG-20010904/DTD/svg10.dtd">
<svg version="1.0" xmlns="http://www.w3.org/2000/svg"
 width="1254.000000pt" height="1254.000000pt" viewBox="0 0 1254.000000 1254.000000"
 preserveAspectRatio="xMidYMid meet">

<g transform="translate(0.000000,1254.000000) scale(0.100000,-0.100000)"
fill="#000000" stroke="none">
<path d="M5995 11139 c-189 -17 -385 -52 -535 -96 -205 -59 -317 -98 -445
-156 -93 -42 -333 -164 -348 -177 -7 -6 -46 -32 -87 -57 -73 -46 -193 -131
-237 -169 -12 -11 -50 -41 -85 -69 -194 -154 -509 -513 -632 -721 -20 -32 -39
-63 -43 -69 -4 -5 -21 -37 -38 -70 -16 -33 -33 -62 -36 -65 -10 -9 -91 -183
-121 -260 -16 -41 -37 -93 -47 -115 -11 -22 -24 -56 -29 -75 -33 -108 -38
-129 -31 -124 5 3 9 -2 9 -11 0 -9 -4 -14 -8 -11 -8 4 -19 -27 -53 -141 -8
-30 -9 -46 -2 -55 6 -7 13 -31 17 -53 3 -22 5 -41 6 -42 0 -2 7 -3 15 -3 18 0
20 26 3 33 -7 3 -1 6 14 6 18 1 29 -5 33 -19 3 -11 11 -20 16 -20 5 0 9 9 9
20 0 19 7 20 90 20 83 0 90 1 90 20 0 13 7 20 20 20 13 0 20 7 20 20 0 13 7
20 20 20 11 0 20 5 20 10 0 6 9 10 20 10 11 0 20 5 20 10 0 6 18 10 40 10 33
0 40 3 40 20 0 13 7 20 20 20 11 0 20 5 20 10 0 6 9 10 20 10 13 0 20 7 20 20
0 11 5 20 10 20 6 0 10 9 10 20 0 13 7 20 20 20 11 0 20 5 20 10 0 6 14 10 30
10 23 0 30 4 30 20 0 17 7 20 40 20 22 0 40 5 40 10 0 6 18 10 40 10 22 0 40
5 40 10 0 6 9 10 20 10 11 0 20 5 20 10 0 6 9 10 20 10 11 0 20 5 20 10 0 6 9
10 20 10 13 0 20 7 20 20 0 17 7 20 40 20 22 0 40 5 40 10 0 6 9 10 20 10 13
0 20 7 20 20 0 23 34 28 44 8 5 -10 7 -10 12 0 3 6 13 12 23 12 9 0 23 9 31
20 8 11 22 20 32 20 10 0 18 5 18 10 0 6 9 10 20 10 11 0 20 5 20 11 0 7 18
10 48 9 67 -4 72 -2 72 20 0 11 5 20 10 20 6 0 10 9 10 20 0 11 5 20 10 20 6
0 10 9 10 20 0 17 7 20 40 20 33 0 40 3 40 20 0 11 5 20 10 20 6 0 10 9 10 20
0 13 7 20 18 20 10 0 24 9 32 20 16 22 66 27 73 8 3 -10 10 -10 30 1 19 10 24
18 17 26 -13 15 -2 25 27 25 14 0 21 4 18 10 -4 6 5 10 19 10 19 0 26 5 26 20
0 16 7 20 30 20 17 0 30 5 30 10 0 6 9 10 20 10 11 0 20 5 20 10 0 6 9 10 20
10 15 0 20 7 20 26 0 17 6 28 20 31 11 3 20 14 20 24 0 16 8 19 43 19 31 0 38
3 27 10 -12 8 -10 10 8 10 15 0 22 5 19 13 -2 6 -11 12 -19 11 -8 -1 -15 4
-15 11 0 7 9 10 21 7 19 -5 19 -3 -4 17 -14 12 -19 19 -11 15 21 -11 71 -12
71 -3 0 12 -106 64 -169 83 -30 9 -85 16 -122 16 -49 0 -68 4 -72 14 -4 9 -1
13 6 11 7 -3 34 6 61 19 27 13 43 25 35 28 -16 5 96 0 157 -8 23 -3 58 -13 77
-23 l36 -18 28 39 c15 22 43 53 62 69 20 16 30 29 23 29 -7 0 -10 5 -6 11 5 8
8 8 13 0 5 -8 24 -4 64 14 45 21 68 25 119 23 l63 -3 -45 -21 c-65 -31 -132
-83 -124 -96 4 -6 3 -8 -4 -5 -22 14 -150 -168 -138 -198 7 -19 -17 -25 -30
-7 -9 12 -14 12 -30 3 -18 -12 -18 -12 0 -7 13 5 17 2 13 -8 -4 -10 1 -13 17
-12 33 4 48 16 42 32 -3 8 -1 14 4 14 6 0 10 7 10 15 0 8 4 15 10 15 5 0 7 6
4 14 -3 8 0 17 7 22 8 4 10 3 5 -4 -4 -7 -2 -20 3 -29 11 -20 12 -17 15 52 1
25 5 30 24 29 17 -1 20 2 12 11 -7 8 -7 15 -1 19 5 3 11 3 14 -1 2 -5 3 -3 1
4 -5 20 9 23 23 5 8 -9 12 -12 9 -6 -3 7 2 18 11 25 14 12 16 12 11 -1 -4 -14
13 -40 27 -40 8 0 35 27 35 35 0 14 -31 36 -42 30 -7 -4 -4 1 6 9 11 9 25 16
30 16 6 0 5 -4 -2 -9 -11 -7 -11 -9 2 -14 18 -7 32 8 16 18 -5 3 -10 11 -10
16 0 6 4 8 9 4 6 -3 8 3 6 14 -5 27 45 37 52 11 3 -11 11 -16 20 -13 8 3 12
13 9 22 -5 13 -4 13 8 -1 18 -24 36 -23 36 2 0 13 7 20 20 20 11 0 20 5 20 10
0 6 9 10 20 10 17 0 20 7 20 40 l0 40 100 0 c60 0 100 4 100 10 0 6 18 10 40
10 33 0 40 3 40 20 0 18 7 20 60 20 53 0 60 2 60 20 0 11 6 20 13 20 7 0 19
-9 27 -20 17 -23 32 -25 63 -8 l22 12 -25 7 c-19 5 -11 8 30 9 30 1 58 2 63 1
4 0 7 8 7 19 0 16 7 20 30 20 17 0 30 5 30 10 0 6 18 10 39 10 22 0 41 4 43 9
3 9 112 18 133 11 6 -2 23 2 39 9 16 6 70 13 120 15 50 2 125 6 166 9 48 3 61
3 35 -2 -39 -8 -39 -8 18 -10 34 0 56 3 52 8 -3 6 12 9 35 8 22 -1 40 -5 40
-10 0 -5 8 -7 18 -5 9 3 34 -4 55 -14 22 -11 42 -17 45 -14 3 3 0 6 -7 6 -7 0
-3 9 10 21 13 11 18 18 12 14 -7 -3 -13 -2 -13 3 0 11 43 18 82 14 19 -2 25
-8 21 -18 -3 -9 2 -14 13 -15 23 0 70 -4 239 -18 72 -5 133 -10 138 -11 4 0 7
-7 7 -15 0 -18 16 -20 23 -2 4 10 6 10 6 0 1 -7 10 -13 20 -13 11 0 23 -9 26
-20 5 -15 15 -20 41 -20 23 0 38 -6 46 -20 9 -13 24 -20 45 -20 18 0 33 -4 33
-8 0 -8 78 -32 91 -29 4 1 15 -6 25 -15 19 -17 137 -29 151 -15 3 4 11 7 17 7
6 0 4 -5 -4 -10 -13 -8 -12 -11 5 -24 11 -9 32 -16 47 -16 16 0 33 -9 42 -21
9 -14 26 -22 46 -23 21 -1 29 -5 25 -15 -3 -9 0 -11 10 -7 8 3 14 0 12 -6 -1
-6 4 -13 12 -15 9 -4 11 0 6 16 -7 24 -51 71 -65 71 -6 0 -10 5 -10 12 0 10
-189 200 -247 248 -26 21 -196 159 -208 168 -36 27 -155 108 -180 122 -16 9
-79 45 -139 80 -60 34 -143 78 -185 97 -42 18 -89 40 -106 47 -163 74 -454
162 -665 200 -238 43 -564 57 -805 35z m2478 -955 c-7 -3 -9 -12 -6 -20 4 -10
-2 -14 -21 -14 -14 0 -26 5 -26 10 0 6 7 10 15 10 8 0 15 5 15 10 0 6 8 10 18
9 9 0 12 -3 5 -5z m37 -35 c0 -6 6 -17 14 -25 8 -8 19 -14 25 -14 6 0 11 -4
11 -10 0 -14 -4 -13 -44 11 -22 13 -33 26 -29 35 6 16 23 19 23 3z m-2753 -25
c-3 -3 -12 -4 -19 -1 -8 3 -5 6 6 6 11 1 17 -2 13 -5z m-130 -10 c-3 -3 -12
-4 -19 -1 -8 3 -5 6 6 6 11 1 17 -2 13 -5z m140 -30 c-3 -3 -12 -4 -19 -1 -8
3 -5 6 6 6 11 1 17 -2 13 -5z m-112 -53 c-3 -6 -11 -11 -17 -11 -6 0 -6 6 2
15 14 17 26 13 15 -4z m-245 -31 c0 -5 -2 -10 -4 -10 -3 0 -8 5 -11 10 -3 6
-1 10 4 10 6 0 11 -4 11 -10z m-30 -26 c0 -8 -19 -13 -24 -6 -3 5 1 9 9 9 8 0
15 -2 15 -3z m-77 -11 c-7 -2 -19 -2 -25 0 -7 3 -2 5 12 5 14 0 19 -2 13 -5z
m62 -23 c3 -5 1 -10 -4 -10 -6 0 -11 5 -11 10 0 6 2 10 4 10 3 0 8 -4 11 -10z
m-235 -100 c0 -5 -12 -10 -27 -9 l-28 1 25 8 c14 4 26 8 28 9 1 1 2 -3 2 -9z
m-351 -176 c-6 -8 -17 -14 -24 -14 -29 0 -102 -49 -162 -108 -57 -57 -82 -95
-50 -76 7 5 7 1 -3 -12 -22 -29 -24 -30 -17 -11 11 29 -1 19 -28 -23 -14 -23
-23 -46 -19 -53 4 -7 4 -9 -1 -5 -4 4 -14 0 -20 -9 -11 -15 -15 -15 -29 -4
-14 11 -16 11 -16 -3 0 -16 -1 -16 -16 -1 -11 10 -25 14 -40 11 -12 -3 -25 -2
-28 2 -6 10 91 9 100 -1 14 -14 26 -7 14 8 -7 8 -19 15 -26 15 -8 0 -14 4 -14
8 0 12 -94 57 -159 76 -30 9 -81 16 -113 16 -32 0 -58 4 -58 9 0 5 24 19 53
32 70 30 170 31 247 1 30 -12 56 -22 56 -22 1 0 13 17 26 38 55 82 173 137
296 139 36 1 41 -1 31 -13z m-74 -63 c3 -5 2 -12 -3 -15 -5 -3 -9 1 -9 9 0 17
3 19 12 6z m-174 -204 c-10 -9 -11 -8 -5 6 3 10 9 15 12 12 3 -3 0 -11 -7 -18z
m-156 -7 c3 -6 -1 -7 -9 -4 -18 7 -21 14 -7 14 6 0 13 -4 16 -10z m145 -30 c0
-5 -5 -10 -11 -10 -5 0 -7 5 -4 10 3 6 8 10 11 10 2 0 4 -4 4 -10z m-1213
-422 c-3 -8 -6 -5 -6 6 -1 11 2 17 5 13 3 -3 4 -12 1 -19z m-42 -139 c-9 -34
-17 -71 -18 -81 -1 -10 -5 -18 -10 -18 -5 0 -7 10 -3 23 3 12 14 50 22 85 9
34 19 61 21 58 2 -2 -3 -32 -12 -67z"/>
<path d="M6911 10366 c2 -2 20 -6 39 -10 25 -4 31 -3 20 4 -14 9 -69 15 -59 6z"/>
<path d="M7140 10350 l-105 -6 100 -1 c55 -1 111 3 125 7 28 9 36 9 -120 0z"/>
<path d="M6838 10343 c6 -2 18 -2 25 0 6 3 1 5 -13 5 -14 0 -19 -2 -12 -5z"/>
<path d="M6948 10333 c7 -3 16 -2 19 1 4 3 -2 6 -13 5 -11 0 -14 -3 -6 -6z"/>
<path d="M7298 10333 c6 -2 18 -2 25 0 6 3 1 5 -13 5 -14 0 -19 -2 -12 -5z"/>
<path d="M7468 10333 c7 -3 16 -2 19 1 4 3 -2 6 -13 5 -11 0 -14 -3 -6 -6z"/>
<path d="M7405 10311 c11 -4 36 -11 55 -15 24 -4 29 -3 15 3 -11 4 -36 11 -55
15 -24 4 -29 3 -15 -3z"/>
<path d="M7534 10276 c11 -9 27 -16 35 -15 14 0 14 1 1 6 -8 3 -24 10 -35 15
-20 9 -20 9 -1 -6z"/>
<path d="M6600 10239 c0 -7 -8 -9 -21 -6 -16 4 -19 3 -11 -5 8 -8 18 -8 34 -1
15 6 18 12 10 17 -7 4 -12 2 -12 -5z"/>
<path d="M7670 10215 c25 -13 50 -24 55 -24 6 0 -10 11 -35 24 -25 13 -49 24
-55 24 -5 0 10 -11 35 -24z"/>
<path d="M6491 10196 c-9 -11 -9 -16 1 -22 7 -4 10 -4 6 1 -4 4 -3 14 3 22 6
7 9 13 6 13 -2 0 -10 -6 -16 -14z"/>
<path d="M7810 10136 c0 -2 7 -7 16 -10 8 -3 12 -2 9 4 -6 10 -25 14 -25 6z"/>
<path d="M7851 10107 c2 -1 13 -9 24 -17 19 -14 19 -14 6 3 -7 9 -18 17 -24
17 -6 0 -8 -1 -6 -3z"/>
<path d="M6329 10063 c-13 -17 -13 -17 6 -3 11 8 22 16 24 17 2 2 0 3 -6 3 -6
0 -17 -8 -24 -17z"/>
<path d="M8637 10010 c10 -11 22 -20 27 -20 5 0 1 9 -9 20 -10 11 -22 20 -26
20 -5 0 -1 -9 8 -20z"/>
<path d="M5586 9913 c-6 -14 -5 -15 5 -6 7 7 10 15 7 18 -3 3 -9 -2 -12 -12z"/>
<path d="M5183 9485 c0 -8 4 -12 9 -9 5 3 6 10 3 15 -9 13 -12 11 -12 -6z"/>
<path d="M5169 9442 c-31 -26 -95 -80 -141 -119 -80 -68 -108 -87 -93 -63 3 6
1 10 -5 10 -7 0 -10 -7 -6 -15 5 -14 -87 -97 -378 -341 -187 -156 -198 -164
-209 -157 -5 3 -7 1 -4 -4 4 -6 -3 -19 -14 -29 -17 -16 -22 -16 -31 -4 -8 12
-9 12 -4 -2 5 -18 -233 -219 -744 -628 -107 -85 -232 -186 -279 -223 -47 -38
-92 -72 -100 -77 -13 -7 -13 -24 -2 -131 48 -468 222 -1006 441 -1364 22 -36
40 -68 40 -71 0 -2 14 -24 30 -47 17 -23 57 -82 90 -132 33 -49 72 -106 87
-125 99 -127 156 -192 281 -321 78 -81 138 -150 134 -154 -4 -5 -1 -5 6 -1 11
6 62 -32 157 -117 50 -45 295 -214 383 -264 742 -421 1463 -514 2222 -286 188
56 489 189 629 277 22 14 43 26 46 26 12 0 241 156 315 214 186 147 377 331
530 513 146 172 180 223 174 261 -4 23 0 37 17 54 l21 23 -17 -34 c-11 -21
-13 -37 -7 -43 6 -6 12 -5 17 3 5 8 4 10 -3 5 -19 -11 -14 9 8 37 11 14 20 30
20 36 0 6 4 11 8 11 11 0 34 48 37 78 l3 22 -159 0 c-129 0 -159 -3 -159 -14
0 -16 -32 -26 -75 -25 -17 1 -22 3 -12 6 32 8 17 23 -23 23 -22 0 -40 -5 -40
-11 0 -6 -9 -8 -21 -4 -24 8 -178 -12 -229 -30 -19 -6 -53 -11 -75 -9 -31 3
-34 2 -15 -4 l25 -8 -27 -6 c-15 -3 -25 -1 -22 3 3 5 -1 9 -8 9 -17 0 -180
-36 -228 -50 -19 -5 -44 -10 -55 -9 -63 2 257 72 485 106 163 24 215 27 437
28 l253 0 11 27 c6 15 16 25 22 21 6 -3 7 -1 3 5 -9 15 18 55 29 44 5 -4 5 -1
1 5 -4 7 -2 22 5 34 9 18 13 19 21 8 8 -11 8 -10 4 4 -4 11 8 49 28 90 55 118
63 137 106 242 45 111 98 271 128 385 26 101 55 231 50 234 -27 16 -320 265
-875 743 l-83 71 -120 -79 c-65 -43 -123 -79 -128 -79 -4 0 -53 46 -108 103
-571 590 -606 626 -622 620 -14 -4 -15 -3 -2 6 12 8 -16 41 -151 177 l-166
167 -259 -228 c-143 -126 -292 -257 -331 -292 -46 -41 -77 -62 -85 -57 -7 4
-10 3 -5 -1 4 -5 -11 -28 -33 -50 l-41 -42 208 -153 c114 -84 262 -193 328
-241 66 -49 255 -187 420 -307 165 -120 417 -303 560 -407 143 -104 293 -213
334 -244 l74 -55 -24 -19 c-13 -10 -105 -78 -204 -151 -189 -139 -825 -611
-1177 -874 -115 -85 -208 -158 -208 -163 0 -5 8 -5 18 1 9 5 60 21 112 36 52
14 133 37 180 51 47 14 97 26 113 27 15 0 27 4 27 8 0 3 71 29 158 58 139 46
175 53 312 66 182 18 631 23 845 10 165 -11 163 -12 -50 -40 -171 -22 -366
-73 -678 -175 -294 -97 -406 -129 -562 -161 -170 -34 -480 -76 -627 -85 -54
-3 -65 10 -15 18 46 7 149 56 142 67 -3 6 0 7 8 4 12 -4 69 20 194 84 17 9 29
20 26 25 -3 6 -1 7 5 3 11 -6 50 8 62 23 3 3 40 24 83 45 42 21 75 41 73 43
-3 3 -20 -3 -38 -12 -60 -32 -66 -34 -89 -28 -21 6 -22 4 -11 -9 11 -13 7 -15
-30 -13 -27 2 -57 -5 -80 -16 -21 -11 -41 -18 -45 -17 -19 4 -84 -15 -73 -22
8 -5 7 -9 -4 -13 -9 -4 -16 -2 -16 2 0 17 -71 4 -98 -17 -68 -53 -249 -182
-263 -187 -10 -4 -36 10 -70 38 -30 24 -72 55 -94 69 -22 14 -51 35 -64 47
-20 18 -41 20 -41 5 0 -3 5 -2 12 2 7 4 8 3 4 -5 -4 -6 -12 -9 -17 -5 -5 3 -7
9 -5 13 8 13 -11 34 -24 26 -9 -6 -9 -9 0 -15 8 -5 7 -9 -5 -13 -10 -4 -14 -3
-9 4 4 8 -1 9 -17 5 l-24 -6 23 11 c24 13 31 35 7 25 -8 -3 -15 -1 -15 4 0 6
-9 10 -19 10 -11 0 -23 5 -27 11 -6 10 10 8 54 -8 38 -15 -4 23 -119 107 -72
52 -142 104 -157 115 -70 53 -742 552 -1015 752 -169 124 -310 230 -312 234
-5 7 45 46 180 141 54 38 631 460 810 593 61 45 129 94 152 111 110 78 560
408 683 501 25 19 46 39 46 44 1 5 2 14 3 19 0 6 6 10 12 10 8 0 8 -5 -1 -15
-18 -22 4 -18 24 4 20 22 30 11 -386 435 -158 161 -177 177 -175 151 2 -25 -1
-29 -18 -27 -27 5 -28 7 -28 42 0 17 -4 30 -9 30 -4 0 -7 -3 -6 -7 2 -5 0 -9
-4 -10 -9 -3 -10 1 -1 22 5 14 7 14 24 -1 10 -9 16 -21 13 -25 -3 -5 0 -9 5
-9 20 0 11 26 -18 54 -16 15 -33 28 -38 27 -4 -1 -8 3 -8 9 0 8 -91 100 -99
100 -1 0 -3 -7 -3 -15 0 -8 6 -15 12 -15 19 0 38 -27 25 -35 -5 -3 -10 -11
-10 -17 0 -6 6 -6 15 2 13 10 18 11 28 1 9 -10 8 -11 -4 -6 -10 4 -19 2 -23
-3 -9 -15 -65 -2 -59 14 3 9 -2 14 -15 14 -11 0 -22 7 -26 15 -3 8 0 14 7 12
7 -1 11 6 9 15 -1 9 2 19 8 23 5 3 7 0 4 -8 -3 -8 -1 -18 4 -21 5 -3 12 4 16
17 4 18 -15 42 -112 139 -64 65 -121 118 -126 118 -5 0 -1 -10 10 -21 19 -22
19 -22 -3 -8 -16 10 -21 20 -17 36 9 32 -3 28 -67 -25z m71 -22 c0 -5 -5 -10
-11 -10 -5 0 -7 5 -4 10 3 6 8 10 11 10 2 0 4 -4 4 -10z m-4 -40 c0 -12 -4
-16 -9 -11 -5 5 -6 14 -3 20 10 15 12 14 12 -9z m92 -22 c-4 -24 24 -55 46
-51 20 3 20 3 1 -6 -11 -4 -23 -7 -27 -4 -5 2 -8 -1 -8 -8 0 -7 -6 -4 -14 7
-22 29 -30 10 -10 -23 l17 -28 -28 29 c-22 22 -25 30 -14 37 8 5 20 7 27 4 6
-2 12 0 12 5 0 5 -13 8 -29 7 -16 -1 -27 -5 -24 -9 9 -16 -5 -7 -23 14 -19 22
-19 22 0 8 18 -13 19 -13 14 1 -5 12 0 17 18 17 23 0 23 -1 7 -15 -16 -13 -16
-13 5 -3 12 6 22 15 22 20 0 6 2 10 5 10 3 0 5 -6 3 -12z m36 -184 c125 -156
189 -239 394 -504 66 -85 125 -154 132 -152 6 1 9 -2 5 -8 -7 -11 43 -82 54
-76 4 3 18 -5 31 -16 l25 -20 -27 16 c-29 17 -37 10 -15 -13 6 -7 -13 0 -43
17 -229 125 -393 212 -399 212 -8 0 -15 -49 -26 -185 -4 -38 -10 -105 -15
-149 -6 -43 -7 -82 -4 -87 3 -5 1 -9 -4 -9 -8 0 -300 320 -315 346 -4 8 -12
14 -16 14 -5 0 -100 -81 -212 -180 -112 -99 -207 -180 -211 -180 -5 0 -4 8 2
18 13 23 150 337 207 477 25 61 80 191 122 290 43 99 84 196 91 215 7 19 26
61 42 93 26 52 31 57 45 45 9 -7 71 -81 137 -164z m46 -3 c1 8 7 3 14 -11 14
-25 12 -45 -4 -35 -5 3 -6 13 -3 22 4 10 2 14 -4 10 -6 -4 -17 1 -24 11 -13
15 -12 16 4 3 14 -11 17 -11 17 0z m80 -90 c8 -15 7 -19 -5 -17 -8 1 -21 8
-28 16 -9 11 -8 11 7 0 18 -14 19 -13 13 3 -9 23 0 22 13 -2z m61 -78 c12 -16
12 -17 -2 -6 -9 7 -20 9 -24 5 -5 -4 -5 -1 -1 6 9 16 11 15 27 -5z m170 -30
c13 -15 17 -22 8 -15 -14 10 -18 10 -23 -3 -3 -9 -11 -13 -16 -10 -8 5 -7 11
0 20 7 8 9 19 5 25 -12 19 1 10 26 -17z m-101 -38 c31 2 35 -1 37 -23 0 -15
-2 -20 -7 -13 -12 20 -19 -23 -8 -45 13 -24 -48 47 -86 100 l-28 41 28 -31
c23 -25 36 -31 64 -29z m1505 44 c11 -16 1 -19 -13 -3 -7 8 -8 14 -3 14 5 0
13 -5 16 -11z m55 -60 c0 -5 -4 -9 -10 -9 -5 0 -10 7 -10 16 0 8 5 12 10 9 6
-3 10 -10 10 -16z m-74 -82 c188 -196 471 -513 574 -643 14 -18 81 -97 150
-177 178 -206 182 -211 156 -201 -9 3 -16 10 -16 14 0 4 -11 19 -24 33 -18 20
-26 23 -37 14 -11 -10 -11 -9 -1 4 10 13 8 19 -6 32 -16 15 -19 15 -31 -4 -10
-18 -10 -23 6 -35 17 -13 17 -14 -2 -7 -18 6 -19 5 -6 -11 8 -9 21 -14 30 -11
8 3 12 3 8 -1 -4 -4 12 -27 35 -51 45 -46 48 -58 6 -20 -14 12 -142 123 -284
246 -253 219 -321 280 -297 267 6 -3 14 -2 18 3 3 6 -4 8 -15 6 -13 -3 -40 12
-75 41 -30 24 -57 44 -60 44 -3 0 -4 -33 -1 -72 3 -40 2 -63 0 -50 -5 23 -6
23 -21 5 -8 -10 -11 -12 -7 -4 6 11 -1 13 -36 8 -24 -3 -46 -9 -49 -14 -3 -4
-13 -8 -21 -8 -8 0 -15 -7 -15 -15 0 -8 5 -15 12 -15 6 0 15 -4 20 -9 5 -5 3
-6 -4 -2 -25 14 -12 -7 58 -90 40 -47 70 -86 68 -88 -2 -2 -34 33 -71 78 -37
44 -78 92 -90 106 -30 33 -179 217 -199 247 -15 22 -11 35 60 243 42 121 79
220 82 220 3 0 41 -37 85 -83z m-1302 54 c9 -7 13 -18 9 -24 -3 -6 -1 -7 6 -3
7 4 15 -2 20 -16 6 -13 10 -19 10 -14 1 5 12 -1 26 -14 13 -12 22 -27 19 -31
-3 -5 2 -9 10 -9 9 0 16 -4 16 -9 0 -5 -9 -7 -20 -4 -11 3 -20 14 -20 24 0 16
-15 33 -30 34 -12 1 -70 40 -70 48 0 4 -4 6 -8 3 -4 -2 -8 4 -8 14 0 20 16 21
40 1z m1411 -1 c10 -11 16 -20 13 -20 -3 0 -13 9 -23 20 -10 11 -16 20 -13 20
3 0 13 -9 23 -20z m-71 -56 c3 -8 2 -12 -4 -9 -6 3 -10 10 -10 16 0 14 7 11
14 -7z m-1294 -35 c0 -5 5 -7 10 -4 6 3 10 1 10 -4 0 -16 -16 -13 -30 4 -9 10
-9 15 -1 15 6 0 11 -5 11 -11z m-75 -52 c9 -10 15 -33 13 -52 -2 -32 -3 -33
-20 -18 -11 10 -16 26 -14 44 2 16 -1 26 -6 23 -5 -3 -7 -12 -4 -20 9 -23 -1
-16 -24 16 -12 17 -18 30 -13 29 22 -4 32 3 27 19 -5 14 -3 13 10 -3 9 -11 23
-28 31 -38z m1522 1 c-3 -7 -5 -2 -5 12 0 14 2 19 5 13 2 -7 2 -19 0 -25z
m-2690 -159 l-64 -174 -84 -50 c-170 -103 -296 -180 -369 -226 -41 -26 -76
-46 -78 -44 -2 2 65 75 149 162 302 310 503 513 506 509 2 -1 -25 -81 -60
-177z m1364 118 c-10 -9 -11 -8 -5 6 3 10 9 15 12 12 3 -3 0 -11 -7 -18z
m-136 -36 c-9 -8 -36 -10 -30 -2 2 4 11 8 20 8 8 0 13 -3 10 -6z m1656 -78
c13 -16 12 -17 -3 -4 -10 7 -18 15 -18 17 0 8 8 3 21 -13z m-1553 -114 c19
-30 11 -32 -11 -3 -10 13 -14 24 -10 24 5 0 14 -9 21 -21z m238 -68 c-4 -5 -1
-11 6 -13 8 -3 6 -6 -4 -10 -11 -5 -15 -2 -13 10 5 23 4 22 11 22 3 0 3 -4 0
-9z m1088 -306 l5 -60 -14 65 c-8 36 -14 79 -14 95 1 30 1 30 9 -5 5 -19 11
-62 14 -95z m-99 105 c3 -6 -1 -7 -9 -4 -18 7 -21 14 -7 14 6 0 13 -4 16 -10z
m806 -417 c13 -16 12 -17 -3 -4 -10 7 -18 15 -18 17 0 8 8 3 21 -13z m78 -100
c13 -13 21 -23 18 -23 -3 0 -23 16 -44 37 -21 20 -29 30 -18 22 11 -7 31 -24
44 -36z m41 19 c0 -5 -7 -9 -15 -9 -8 0 -12 4 -9 9 3 4 9 8 15 8 5 0 9 -4 9
-8z m15 -70 c-3 -3 -11 0 -18 7 -9 10 -8 11 6 5 10 -3 15 -9 12 -12z m-3962
-1379 c-40 -2 -107 -2 -150 0 -43 1 -10 3 72 3 83 0 118 -2 78 -3z m-306 -9
c-3 -3 -12 -4 -19 -1 -8 3 -5 6 6 6 11 1 17 -2 13 -5z m613 -14 c332 -47 552
-106 960 -257 118 -44 261 -95 318 -113 56 -19 102 -37 102 -41 0 -9 -64 5
-123 26 -26 10 -51 14 -54 11 -4 -3 1 -6 11 -6 9 0 15 -4 11 -9 -3 -5 0 -13 6
-17 8 -4 9 -3 5 4 -8 13 -1 14 31 6 13 -4 20 -10 18 -15 -10 -14 32 -47 112
-89 102 -53 144 -78 169 -101 11 -10 30 -19 42 -19 12 0 22 -4 22 -10 0 -5 6
-10 13 -10 6 0 49 -22 95 -49 l82 -48 -42 -11 -43 -11 45 3 c25 2 36 1 25 -2
l-20 -4 20 -8 c32 -13 -71 -4 -150 14 -271 58 -560 149 -1005 314 -420 156
-646 212 -1000 247 l-145 14 130 -6 c122 -6 196 -7 238 -4 9 0 17 8 17 16 0 8
4 15 9 15 5 0 11 12 14 28 4 20 15 31 41 40 20 7 41 10 47 6 7 -4 9 -3 6 3 -7
12 105 25 193 23 30 -1 53 1 50 3 -7 7 -230 45 -360 61 -58 8 -87 14 -65 15
22 0 101 -8 175 -19z m3543 -87 c-7 -2 -21 -2 -30 0 -10 3 -4 5 12 5 17 0 24
-2 18 -5z m-318 -33 c3 -6 -1 -7 -9 -4 -18 7 -21 14 -7 14 6 0 13 -4 16 -10z
m783 3 c-16 -2 -40 -2 -55 0 -16 2 -3 4 27 4 30 0 43 -2 28 -4z m-808 -13 c8
-5 11 -10 5 -10 -5 0 -17 5 -25 10 -8 5 -10 10 -5 10 6 0 17 -5 25 -10z m715
-23 c34 -4 32 -4 -9 -3 -34 1 -51 6 -54 16 -4 12 -2 13 9 3 8 -6 32 -13 54
-16z m83 16 c-15 -2 -42 -2 -60 0 -18 2 -6 4 27 4 33 0 48 -2 33 -4z m-858
-13 c18 -12 2 -12 -25 0 -13 6 -15 9 -5 9 8 0 22 -4 30 -9z m363 3 c-7 -2 -19
-2 -25 0 -7 3 -2 5 12 5 14 0 19 -2 13 -5z m-440 -20 c-7 -2 -19 -2 -25 0 -7
3 -2 5 12 5 14 0 19 -2 13 -5z m1184 -19 c-3 -3 -12 -4 -19 -1 -8 3 -5 6 6 6
11 1 17 -2 13 -5z m-1917 -228 c0 -2 -7 -9 -15 -16 -13 -11 -14 -10 -9 4 5 14
24 23 24 12z m-130 -60 c0 -3 -4 -8 -10 -11 -5 -3 -10 -1 -10 4 0 6 5 11 10
11 6 0 10 -2 10 -4z m39 -10 c-2 -2 -15 -9 -29 -15 -24 -11 -24 -11 -6 3 16
13 49 24 35 12z m-204 -74 c1 -12 -6 -19 -19 -20 -14 -1 -17 1 -8 7 7 4 12 12
11 17 -1 5 -1 13 0 18 2 15 15 -3 16 -22z m1715 -12 c-8 -6 -33 -15 -55 -21
-51 -13 -285 -100 -530 -196 -271 -107 -460 -175 -530 -191 -22 -6 -67 -17
-100 -26 -431 -119 -873 -125 -1300 -18 -174 44 -316 93 -650 225 -104 41
-207 80 -228 87 -21 6 -36 14 -34 16 2 3 47 -11 98 -30 52 -19 126 -47 164
-61 39 -14 86 -33 105 -42 19 -9 50 -17 67 -17 20 0 28 -3 20 -8 -8 -5 -6 -8
8 -9 11 -1 25 -3 31 -3 6 -1 18 -6 25 -12 8 -7 25 -14 39 -18 14 -3 19 -3 13
0 -17 7 -16 21 1 27 9 4 12 -2 10 -19 -2 -18 3 -24 16 -24 10 0 22 -5 25 -10
3 -6 16 -8 28 -5 12 3 36 1 52 -4 22 -7 25 -10 10 -11 l-20 -1 20 -9 c11 -5
38 -9 60 -9 30 -1 36 -4 25 -11 -12 -8 -11 -10 8 -10 15 0 22 6 22 19 0 15 -9
20 -42 24 -24 3 -70 12 -103 20 -51 12 -56 15 -30 18 17 2 38 0 49 -6 13 -7
20 -7 23 3 3 6 9 10 14 6 5 -3 9 8 9 23 0 18 -8 33 -20 41 -12 7 -18 17 -15
22 4 6 -6 10 -22 10 -22 0 -25 2 -13 10 9 6 10 10 3 10 -22 0 -24 -19 -2 -30
11 -7 18 -14 15 -17 -3 -3 -11 -1 -18 5 -8 6 -29 7 -55 3 -23 -5 -40 -5 -38 0
3 4 -5 9 -17 12 -14 2 -3 7 30 12 59 9 60 11 17 19 -41 7 -76 16 -100 26 -22
8 -122 33 -225 55 l-65 14 53 -4 c29 -2 68 -9 85 -14 48 -15 356 -85 447 -101
571 -101 906 -82 1880 106 448 86 478 92 600 109 63 9 117 19 119 21 2 2 11 4
20 4 14 0 14 -2 1 -10z m-3787 -7 c-7 -2 -19 -2 -25 0 -7 3 -2 5 12 5 14 0 19
-2 13 -5z m2022 -3 c3 -5 -2 -10 -12 -11 -16 0 -16 -1 2 -9 16 -7 17 -9 3 -9
-9 -1 -20 4 -23 9 -4 6 -11 7 -17 4 -7 -4 -8 -2 -4 5 4 6 12 9 17 6 5 -4 9 -1
9 4 0 14 17 14 25 1z m-1816 -16 c8 -7 -74 -2 -99 6 -16 5 -2 6 35 3 33 -3 62
-7 64 -9z m64 -11 c-7 -2 -21 -2 -30 0 -10 3 -4 5 12 5 17 0 24 -2 18 -5z
m-113 -13 c8 -5 11 -10 5 -10 -5 0 -17 5 -25 10 -8 5 -10 10 -5 10 6 0 17 -5
25 -10z m47 -16 c-3 -3 -12 -4 -19 -1 -8 3 -5 6 6 6 11 1 17 -2 13 -5z m230 0
c-3 -3 -12 -4 -19 -1 -8 3 -5 6 6 6 11 1 17 -2 13 -5z m-145 -25 c32 -12 57
-24 55 -26 -3 -2 -33 7 -68 21 -79 30 -68 34 13 5z m185 15 c-3 -3 -12 -4 -19
-1 -8 3 -5 6 6 6 11 1 17 -2 13 -5z m68 -14 c25 -11 -1 -11 -35 0 -20 6 -21 8
-5 8 11 0 29 -3 40 -8z m2258 -17 c-7 -2 -19 -2 -25 0 -7 3 -2 5 12 5 14 0 19
-2 13 -5z m-2046 -59 c-3 -3 -12 -4 -19 -1 -8 3 -5 6 6 6 11 1 17 -2 13 -5z
m-59 -46 c-10 -6 -10 -8 1 -8 8 0 12 -3 8 -6 -3 -3 -14 -1 -24 5 -13 7 -14 10
-4 11 11 0 9 4 -5 15 -18 14 -17 14 9 3 20 -8 24 -14 15 -20z m1739 -4 c-3 -3
-12 -4 -19 -1 -8 3 -5 6 6 6 11 1 17 -2 13 -5z m-408 -20 c8 -7 -54 -2 -79 6
-17 6 -9 7 25 3 28 -3 52 -7 54 -9z m-1235 -23 c4 -5 -3 -7 -14 -4 -23 6 -26
13 -6 13 8 0 17 -4 20 -9z m126 -11 c0 -5 -7 -7 -15 -4 -8 4 -15 8 -15 10 0 2
7 4 15 4 8 0 15 -4 15 -10z m-283 -206 c-3 -3 -12 -4 -19 -1 -8 3 -5 6 6 6 11
1 17 -2 13 -5z m78 -44 c3 -6 -1 -7 -9 -4 -18 7 -21 14 -7 14 6 0 13 -4 16
-10z m322 -26 c-3 -3 -12 -4 -19 -1 -8 3 -5 6 6 6 11 1 17 -2 13 -5z m46 -11
c-7 -2 -19 -2 -25 0 -7 3 -2 5 12 5 14 0 19 -2 13 -5z m74 -19 c-3 -3 -12 -4
-19 -1 -8 3 -5 6 6 6 11 1 17 -2 13 -5z m68 -14 c25 -11 -1 -11 -35 0 -20 6
-21 8 -5 8 11 0 29 -3 40 -8z m60 -20 c13 -6 15 -9 5 -9 -8 0 -22 4 -30 9 -18
12 -2 12 25 0z m95 -30 c18 -12 2 -12 -25 0 -13 6 -15 9 -5 9 8 0 22 -4 30 -9z
m60 -20 c8 -5 11 -10 5 -10 -5 0 -17 5 -25 10 -8 5 -10 10 -5 10 6 0 17 -5 25
-10z m143 -40 c96 -25 210 -47 332 -64 17 -2 -6 -3 -50 -3 -44 1 -82 4 -85 8
-3 3 -43 13 -90 22 -79 16 -245 64 -227 66 4 1 58 -12 120 -29z m640 -80 c50
0 87 -3 84 -6 -8 -9 -192 -4 -287 6 l-75 9 94 -5 c52 -2 135 -4 184 -4z m130
3 c-7 -2 -19 -2 -25 0 -7 3 -2 5 12 5 14 0 19 -2 13 -5z m-930 -40 c-7 -2 -19
-2 -25 0 -7 3 -2 5 12 5 14 0 19 -2 13 -5z m587 -23 c-14 -4 -43 -8 -65 -8
l-40 1 45 7 c65 10 92 10 60 0z m-387 -7 c-7 -2 -19 -2 -25 0 -7 3 -2 5 12 5
14 0 19 -2 13 -5z m104 1 c-3 -3 -12 -4 -19 -1 -8 3 -5 6 6 6 11 1 17 -2 13
-5z m101 -1 c-10 -2 -28 -2 -40 0 -13 2 -5 4 17 4 22 1 32 -1 23 -4z"/>
<path d="M5605 8907 c10 -15 20 -25 23 -22 3 3 -5 16 -17 28 l-23 22 17 -28z"/>
<path d="M6880 8472 c0 -5 10 -17 22 -28 19 -15 20 -16 9 -1 -11 14 -11 17 0
17 11 0 11 2 -1 10 -19 12 -30 13 -30 2z"/>
<path d="M6941 8403 c7 -10 15 -20 16 -22 2 -2 3 3 3 11 0 9 -7 19 -16 22 -15
6 -15 4 -3 -11z"/>
<path d="M7025 8370 c3 -5 8 -10 11 -10 2 0 4 5 4 10 0 6 -5 10 -11 10 -5 0
-7 -4 -4 -10z"/>
<path d="M6992 8361 c-10 -6 -3 -21 27 -59 47 -59 57 -67 64 -48 7 17 -17 41
-32 32 -11 -7 -22 19 -15 37 7 18 -28 48 -44 38z m38 -33 c0 -6 -7 -5 -15 2
-8 7 -15 17 -15 22 0 6 7 5 15 -2 8 -7 15 -17 15 -22z m45 -58 c3 -5 1 -10 -4
-10 -6 0 -11 5 -11 10 0 6 2 10 4 10 3 0 8 -4 11 -10z"/>
<path d="M7086 8292 c5 -4 12 -11 15 -15 3 -5 9 -2 12 5 3 9 -3 14 -15 15 -11
1 -16 -1 -12 -5z"/>
<path d="M7399 8283 c-13 -16 -12 -17 3 -5 9 8 23 10 29 6 8 -4 9 -3 5 4 -10
17 -21 15 -37 -5z"/>
<path d="M7470 8213 c0 -6 7 -17 16 -24 19 -15 47 -21 38 -8 -3 5 -9 7 -14 4
-5 -3 -16 5 -24 17 -9 12 -16 17 -16 11z"/>
<path d="M7550 8142 c0 -17 37 -34 45 -21 4 6 4 13 1 16 -3 4 -6 0 -6 -7 0 -9
-6 -8 -20 5 -11 10 -20 13 -20 7z"/>
<path d="M7645 8110 c-7 -23 -16 -25 -33 -8 -7 7 -12 8 -12 2 0 -5 9 -15 19
-21 15 -10 21 -10 25 0 3 7 4 3 2 -8 -4 -20 1 -25 175 -173 21 -19 36 -26 33
-17 -4 9 1 24 11 35 21 23 13 39 -10 20 -13 -11 -19 -10 -35 5 -11 10 -23 16
-26 13 -3 -3 7 -15 22 -27 15 -12 25 -23 23 -25 -2 -3 -19 9 -37 25 -18 16
-27 29 -20 29 6 0 8 3 5 7 -4 3 -3 11 3 17 6 8 3 12 -10 12 -10 0 -17 -4 -14
-7 2 -4 0 -10 -4 -13 -5 -3 -8 5 -7 17 4 32 4 33 15 17 5 -8 12 -11 16 -7 9 9
-15 37 -32 37 -8 0 -11 -6 -8 -15 4 -8 2 -15 -4 -15 -6 0 -13 6 -15 13 -4 10
-6 10 -6 0 -1 -7 -6 -13 -12 -13 -6 0 -9 6 -6 13 2 6 -3 17 -10 22 -12 9 -11
15 6 34 21 24 29 18 11 -9 -12 -20 9 -31 34 -18 15 8 22 7 33 -8 7 -11 19 -26
26 -34 7 -8 11 -22 9 -31 -4 -22 25 -46 40 -31 15 15 -87 133 -108 125 -7 -3
-14 -10 -14 -16 0 -6 -3 -8 -6 -5 -3 4 -1 16 6 27 7 14 7 21 0 21 -5 0 -10 8
-11 18 0 10 -3 12 -6 5 -6 -15 -43 -17 -43 -3 0 18 -18 11 -25 -10z m34 -9
c10 -6 10 -13 3 -28 -8 -14 -8 -24 1 -33 10 -12 9 -12 -6 0 -10 7 -15 20 -12
28 3 8 0 21 -6 28 -13 16 -1 18 20 5z m62 -108 c13 -16 12 -17 -3 -4 -10 7
-18 15 -18 17 0 8 8 3 21 -13z"/>
<path d="M5785 8880 c3 -5 8 -10 11 -10 2 0 4 5 4 10 0 6 -5 10 -11 10 -5 0
-7 -4 -4 -10z"/>
<path d="M5730 8760 c-9 -6 -10 -10 -3 -10 6 0 15 5 18 10 8 12 4 12 -15 0z"/>
<path d="M4520 6160 l-45 -7 42 -1 c23 -1 45 3 48 8 3 6 5 9 3 8 -2 0 -23 -4
-48 -8z"/>
<path d="M4428 6013 c7 -3 16 -2 19 1 4 3 -2 6 -13 5 -11 0 -14 -3 -6 -6z"/>
<path d="M5638 5623 c7 -3 16 -2 19 1 4 3 -2 6 -13 5 -11 0 -14 -3 -6 -6z"/>
<path d="M5990 5523 c25 -7 52 -12 60 -9 8 2 5 4 -8 5 -13 0 -21 5 -18 10 3 4
-14 8 -37 8 l-42 0 45 -14z"/>
<path d="M5373 5433 c9 -2 25 -2 35 0 9 3 1 5 -18 5 -19 0 -27 -2 -17 -5z"/>
<path d="M5518 5423 c12 -2 30 -2 40 0 9 3 -1 5 -23 4 -22 0 -30 -2 -17 -4z"/>
<path d="M5558 5352 c-4 -15 0 -17 23 -14 19 3 26 9 22 18 -7 20 -40 17 -45
-4z"/>
<path d="M5693 5353 c9 -2 23 -2 30 0 6 3 -1 5 -18 5 -16 0 -22 -2 -12 -5z"/>
<path d="M5813 5353 c9 -2 25 -2 35 0 9 3 1 5 -18 5 -19 0 -27 -2 -17 -5z"/>
<path d="M5978 5353 c7 -3 16 -2 19 1 4 3 -2 6 -13 5 -11 0 -14 -3 -6 -6z"/>
<path d="M6108 5353 c7 -3 16 -2 19 1 4 3 -2 6 -13 5 -11 0 -14 -3 -6 -6z"/>
<path d="M6408 5353 c6 -2 18 -2 25 0 6 3 1 5 -13 5 -14 0 -19 -2 -12 -5z"/>
<path d="M5642 5324 c-16 -18 -2 -64 19 -64 12 0 19 7 19 20 0 11 5 20 10 20
6 0 10 9 10 19 0 14 -7 18 -24 17 -13 0 -28 -6 -34 -12z"/>
<path d="M6520 5329 c0 -5 3 -10 8 -10 30 -6 65 -9 117 -13 59 -4 59 -4 15 5
-90 20 -140 26 -140 18z"/>
<path d="M5508 5323 c7 -3 16 -2 19 1 4 3 -2 6 -13 5 -11 0 -14 -3 -6 -6z"/>
<path d="M5710 5278 c0 -16 5 -18 31 -14 53 8 53 28 -1 32 -24 2 -30 -2 -30
-18z"/>
<path d="M6749 5291 c11 -7 7 -10 -15 -14 l-29 -4 28 -2 c24 -1 27 -4 24 -28
-2 -18 -10 -29 -23 -30 -18 -3 -18 -2 1 7 15 8 12 8 -15 3 -19 -3 -48 -7 -65
-8 -16 0 -40 -6 -52 -13 -12 -7 -34 -12 -50 -13 -15 0 -37 -4 -48 -9 -21 -10
75 -3 105 7 8 2 40 6 70 8 62 5 294 49 331 64 24 10 23 10 -6 10 -16 1 -46 5
-65 10 -50 13 -208 23 -191 12z m144 -48 c-7 -2 -19 -2 -25 0 -7 3 -2 5 12 5
14 0 19 -2 13 -5z m-56 -9 c-3 -3 -12 -4 -19 -1 -8 3 -5 6 6 6 11 1 17 -2 13
-5z"/>
<path d="M6585 5280 c-25 -11 1 -11 35 0 20 6 21 8 5 8 -11 0 -29 -3 -40 -8z"/>
<path d="M6715 5250 c3 -5 13 -10 21 -10 8 0 14 5 14 10 0 6 -9 10 -21 10 -11
0 -17 -4 -14 -10z"/>
<path d="M5720 5225 c108 -28 113 -28 106 -16 -4 5 11 7 34 4 22 -3 40 -2 40
3 0 5 -26 8 -57 7 -32 -1 -80 5 -107 13 -27 8 -63 14 -80 13 -18 0 8 -10 64
-24z"/>
<path d="M5818 5243 c7 -3 16 -2 19 1 4 3 -2 6 -13 5 -11 0 -14 -3 -6 -6z"/>
<path d="M5878 5243 c6 -2 18 -2 25 0 6 3 1 5 -13 5 -14 0 -19 -2 -12 -5z"/>
<path d="M5898 5193 c7 -3 16 -2 19 1 4 3 -2 6 -13 5 -11 0 -14 -3 -6 -6z"/>
<path d="M6330 5170 c8 -5 20 -10 25 -10 6 0 3 5 -5 10 -8 5 -19 10 -25 10 -5
0 -3 -5 5 -10z"/>
<path d="M6088 5163 c6 -2 18 -2 25 0 6 3 1 5 -13 5 -14 0 -19 -2 -12 -5z"/>
<path d="M6378 5163 c7 -3 16 -2 19 1 4 3 -2 6 -13 5 -11 0 -14 -3 -6 -6z"/>
<path d="M6428 5163 c7 -3 16 -2 19 1 4 3 -2 6 -13 5 -11 0 -14 -3 -6 -6z"/>
<path d="M5050 9369 c0 -5 5 -7 10 -4 6 3 10 8 10 11 0 2 -4 4 -10 4 -5 0 -10
-5 -10 -11z"/>
<path d="M2805 9350 c-3 -5 -1 -10 4 -10 6 0 11 5 11 10 0 6 -2 10 -4 10 -3 0
-8 -4 -11 -10z"/>
<path d="M4979 9313 c-18 -20 -19 -23 -4 -13 32 24 47 40 37 40 -4 0 -19 -12
-33 -27z"/>
<path d="M4733 9113 c4 -3 1 -13 -6 -22 -11 -14 -10 -14 5 -2 16 12 16 31 1
31 -4 0 -3 -3 0 -7z"/>
<path d="M4515 8919 c-4 -6 -14 -8 -24 -4 -12 5 -13 3 -4 -6 9 -9 17 -8 34 5
13 9 18 16 12 16 -7 0 -15 -5 -18 -11z"/>
<path d="M2931 8904 c0 -11 3 -14 6 -6 3 7 2 16 -1 19 -3 4 -6 -2 -5 -13z"/>
<path d="M2670 8871 c0 -7 -4 -9 -10 -6 -5 3 -10 -3 -10 -15 0 -12 -7 -44 -16
-71 -16 -48 -16 -51 2 -64 25 -19 31 -18 38 1 9 24 0 29 -20 13 -16 -13 -17
-12 -10 11 5 14 11 43 13 65 3 22 10 46 16 53 5 7 7 15 3 19 -3 3 -6 1 -6 -6z"/>
<path d="M2917 8873 c-4 -3 -7 -11 -7 -17 0 -6 5 -5 12 2 6 6 9 14 7 17 -3 3
-9 2 -12 -2z"/>
<path d="M2612 8661 c-1 -24 4 -46 13 -55 19 -18 19 -25 -1 -64 -21 -43 -28
-40 -21 8 3 22 1 40 -4 40 -8 0 -14 -60 -11 -109 0 -8 -4 -25 -9 -38 -6 -16
-5 -23 4 -23 8 0 8 -3 -1 -9 -10 -6 -14 -36 -15 -105 -1 -53 -6 -96 -11 -96
-9 0 -1 -478 10 -608 6 -63 9 -71 22 -60 13 12 14 10 2 -9 -11 -18 -12 -35 -2
-95 17 -102 19 -119 21 -156 0 -19 5 -31 11 -27 5 3 7 0 4 -8 -9 -25 39 -240
96 -427 17 -58 36 -122 41 -142 16 -67 150 -420 194 -513 23 -49 52 -114 65
-142 13 -30 27 -50 33 -46 6 3 7 1 3 -5 -10 -16 164 -353 177 -345 6 3 7 1 3
-5 -10 -16 12 -54 26 -46 7 4 8 3 4 -5 -10 -15 72 -163 86 -155 7 4 8 2 4 -4
-9 -15 93 -194 107 -185 6 3 7 1 3 -5 -8 -14 28 -74 39 -64 5 4 6 2 2 -4 -6
-11 75 -147 87 -144 4 1 11 -2 14 -6 4 -4 1 -4 -5 0 -7 4 -13 5 -13 2 0 -10
81 -130 91 -137 6 -3 10 -9 9 -13 -2 -13 73 -126 81 -121 4 3 11 0 15 -6 5 -8
3 -9 -6 -4 -8 5 -11 3 -8 -6 3 -8 10 -13 15 -12 5 1 10 -4 10 -11 0 -13 131
-216 140 -216 2 0 1 5 -3 12 -4 7 -3 8 5 4 6 -4 9 -12 6 -17 -8 -12 20 -51 30
-41 5 4 5 2 2 -5 -4 -6 -1 -17 6 -25 8 -7 16 -18 18 -23 14 -34 125 -183 133
-178 5 3 6 1 2 -5 -3 -5 9 -30 26 -54 18 -24 46 -62 62 -85 16 -24 33 -40 39
-36 6 3 7 1 3 -5 -4 -7 25 -56 66 -114 40 -57 85 -121 100 -143 42 -61 71 -93
64 -72 -4 11 -2 16 5 12 6 -4 8 -13 5 -20 -3 -8 16 -43 42 -79 26 -35 89 -123
141 -195 52 -72 98 -128 104 -124 6 3 7 1 3 -6 -9 -15 212 -313 227 -304 6 3
7 1 3 -5 -9 -15 23 -64 37 -55 5 3 7 2 4 -4 -8 -12 81 -136 92 -128 5 2 8 -1
7 -8 0 -8 9 -27 21 -43 11 -16 91 -123 178 -239 86 -115 177 -238 202 -273 32
-42 49 -58 54 -50 5 8 8 6 7 -7 -2 -17 136 -215 149 -215 2 0 1 5 -2 10 -10
16 1 11 16 -7 12 -14 12 -16 0 -9 -9 6 -12 5 -9 -5 3 -8 11 -13 17 -11 6 1 10
-2 9 -7 -4 -13 89 -139 137 -186 22 -22 29 -31 16 -20 l-25 20 20 -26 c102
-138 128 -168 137 -157 6 9 7 8 4 -4 -7 -20 30 -71 45 -62 6 4 8 2 5 -3 -6 -9
77 -133 89 -133 2 0 4 366 4 813 l0 813 -37 31 c-21 17 -61 53 -88 80 -28 26
-118 111 -200 188 -82 77 -161 151 -176 165 -14 14 -66 63 -115 110 -259 246
-315 302 -310 308 3 3 17 -5 31 -18 14 -13 34 -24 45 -25 26 -2 38 -14 22 -24
-9 -5 -3 -16 18 -36 17 -16 30 -23 30 -16 0 10 3 11 14 2 8 -6 20 -10 27 -9 8
2 14 -7 15 -20 l1 -23 -23 22 c-13 12 -26 20 -29 17 -3 -3 14 -22 37 -42 48
-41 49 -42 97 -91 27 -28 37 -33 48 -23 19 15 43 -6 26 -23 -9 -9 -6 -17 12
-30 13 -11 29 -19 37 -19 7 0 22 -8 33 -17 21 -16 19 -16 -32 4 -10 3 4 -14
31 -40 38 -36 53 -44 66 -37 12 6 17 5 17 -5 0 -7 -7 -11 -15 -8 -12 5 -12 3
-1 -16 8 -12 15 -17 17 -11 7 20 32 10 29 -12 -1 -12 3 -23 8 -23 34 -3 56
-19 62 -46 3 -16 11 -30 17 -30 6 -1 18 -2 26 -3 8 0 15 -8 15 -16 0 -21 124
-140 140 -134 7 3 16 1 20 -5 4 -7 -1 -8 -12 -5 -10 4 8 -19 40 -51 55 -55 59
-57 77 -40 10 9 16 24 13 33 -4 14 -3 14 5 3 8 -11 39 15 143 118 74 73 169
165 211 204 43 40 78 77 78 83 0 6 11 17 25 24 22 12 24 18 19 48 -7 35 -7 35
25 29 20 -4 30 -3 26 3 -3 5 0 7 7 5 16 -6 82 61 74 74 -4 5 3 11 14 13 12 2
21 6 20 11 0 4 0 18 0 32 0 18 -5 25 -20 25 -11 0 -20 7 -20 15 0 12 -16 15
-80 15 l-80 0 0 40 0 40 -80 0 -80 0 0 -40 0 -40 -160 0 c-153 0 -160 1 -160
20 0 18 -7 20 -80 20 l-80 0 0 40 0 40 -80 0 -80 0 0 -40 c0 -22 -4 -40 -10
-40 -5 0 -10 -9 -10 -20 0 -19 -7 -20 -140 -20 l-140 0 0 40 c0 22 -4 40 -10
40 -5 0 -10 18 -10 40 l0 40 80 0 80 0 0 40 0 40 -160 0 c-136 0 -160 2 -160
15 0 8 -9 15 -20 15 -11 0 -20 -7 -20 -15 0 -8 9 -15 20 -15 29 0 25 -27 -5
-34 -14 -4 -25 -11 -25 -16 0 -6 -7 -10 -15 -10 -10 0 -13 -9 -10 -28 4 -33
-8 -61 -19 -43 -4 6 -2 11 5 11 7 0 -3 14 -21 30 -21 18 -37 27 -43 21 -13
-13 2 -34 19 -27 7 3 16 0 20 -6 4 -6 3 -8 -4 -4 -5 3 -12 1 -14 -5 -2 -6 -24
7 -48 29 -150 137 -154 141 -141 156 9 11 9 15 -1 20 -10 5 -10 7 0 12 6 3 12
10 12 16 0 6 -6 6 -15 -2 -8 -6 -20 -8 -27 -4 -7 4 -4 -2 6 -14 32 -37 9 -37
-29 -1 -34 33 -47 58 -23 43 7 -4 8 -3 4 4 -4 6 -12 9 -19 6 -7 -2 -169 153
-368 353 -404 408 -515 528 -511 551 2 12 0 14 -6 4 -6 -9 -25 7 -69 55 -271
304 -574 708 -688 920 -14 27 -30 55 -35 63 -28 43 -110 193 -110 198 0 4 -21
50 -46 102 -25 52 -64 140 -86 195 -22 55 -45 114 -53 130 -57 132 -150 496
-184 725 -37 240 -54 736 -32 884 24 156 32 262 22 291 -9 25 -10 19 -5 -30 6
-56 -1 -72 -11 -29 -3 11 -9 35 -15 54 -9 34 -9 34 -6 -12 2 -27 0 -48 -5 -48
-5 0 -9 10 -10 23 0 12 -5 31 -10 42 -6 14 -8 4 -6 -38 l2 -57 -37 0 -38 0 0
75 c0 68 -10 95 -23 63 -4 -10 -6 -10 -6 0 -1 6 -8 12 -16 12 -8 0 -19 9 -25
20 -18 33 -37 24 -38 -19z m-2 -208 c0 -19 -3 -24 -10 -17 -6 6 -8 18 -4 27 9
24 14 21 14 -10z m17 -20 c-3 -10 -5 -2 -5 17 0 19 2 27 5 18 2 -10 2 -26 0
-35z m200 -5 c-3 -7 -5 -2 -5 12 0 14 2 19 5 13 2 -7 2 -19 0 -25z m-230 -120
c-3 -7 -5 -2 -5 12 0 14 2 19 5 13 2 -7 2 -19 0 -25z m-30 -170 c-3 -7 -5 -2
-5 12 0 14 2 19 5 13 2 -7 2 -19 0 -25z m49 -683 c-9 -9 -16 -13 -16 -8 0 12
22 34 28 28 2 -2 -3 -11 -12 -20z m61 -427 c-3 -7 -5 -2 -5 12 0 14 2 19 5 13
2 -7 2 -19 0 -25z m2628 -3128 c3 -5 1 -10 -4 -10 -6 0 -11 5 -11 10 0 6 2 10
4 10 3 0 8 -4 11 -10z m135 -74 c0 -9 7 -12 20 -9 25 7 25 -2 1 -28 -19 -20
-48 -18 -35 2 3 6 -2 19 -12 30 -16 18 -16 19 4 19 12 0 22 -6 22 -14z m1425
-166 c3 -5 -1 -10 -9 -10 -9 0 -16 5 -16 10 0 6 4 10 9 10 6 0 13 -4 16 -10z
m3 -42 c-6 -18 -48 -19 -48 -2 0 8 11 14 26 14 16 0 24 -5 22 -12z m-88 -38
c0 -5 -4 -10 -10 -10 -5 0 -10 5 -10 10 0 6 5 10 10 10 6 0 10 -4 10 -10z m50
6 c0 -3 -4 -8 -10 -11 -5 -3 -10 -1 -10 4 0 6 5 11 10 11 6 0 10 -2 10 -4z
m-100 -55 c0 -6 -4 -13 -10 -16 -5 -3 -10 1 -10 9 0 9 5 16 10 16 6 0 10 -4
10 -9z m-645 -361 c3 -5 2 -10 -4 -10 -5 0 -13 5 -16 10 -3 6 -2 10 4 10 5 0
13 -4 16 -10z m65 -10 c0 -5 -4 -10 -10 -10 -5 0 -10 -8 -10 -17 0 -13 -3 -14
-11 -6 -8 8 -8 15 2 27 16 18 29 20 29 6z"/>
<path d="M9312 8615 c0 -16 2 -22 5 -12 2 9 2 23 0 30 -3 6 -5 -1 -5 -18z"/>
<path d="M3222 8525 c0 -16 2 -22 5 -12 2 9 2 23 0 30 -3 6 -5 -1 -5 -18z"/>
<path d="M9342 8420 c0 -14 2 -19 5 -12 2 6 2 18 0 25 -3 6 -5 1 -5 -13z"/>
<path d="M9353 8305 c0 -22 2 -30 4 -17 2 12 2 30 0 40 -3 9 -5 -1 -4 -23z"/>
<path d="M9362 8060 c-2 -113 -7 -240 -10 -282 -4 -43 -4 -78 -1 -78 11 0 21
231 17 405 l-4 160 -2 -205z"/>
<path d="M6105 7886 c-262 -51 -487 -221 -612 -463 -21 -39 -35 -74 -33 -76 3
-3 34 0 70 5 103 17 390 13 511 -6 153 -24 368 -82 431 -117 10 -5 23 -9 28
-9 21 0 217 -97 310 -154 52 -32 145 -96 207 -142 61 -46 113 -84 115 -84 6 0
13 116 11 198 -7 332 -209 639 -516 782 -45 21 -109 46 -142 54 -83 23 -292
29 -380 12z m454 -610 c-4 -5 -5 -15 -2 -22 4 -10 -2 -13 -18 -12 -29 4 -40
37 -19 58 13 13 17 13 31 0 9 -8 13 -19 8 -24z"/>
<path d="M9342 7660 c0 -19 2 -27 5 -17 2 9 2 25 0 35 -3 9 -5 1 -5 -18z"/>
<path d="M9331 7554 c0 -11 3 -14 6 -6 3 7 2 16 -1 19 -3 4 -6 -2 -5 -13z"/>
<path d="M9312 7458 c-15 -80 -15 -88 -1 -88 5 0 7 5 4 10 -4 6 -1 34 6 64 6
29 10 59 7 66 -2 7 -9 -16 -16 -52z"/>
<path d="M3171 7404 c0 -11 3 -14 6 -6 3 7 2 16 -1 19 -3 4 -6 -2 -5 -13z"/>
<path d="M5609 7321 c-5 -38 -3 -74 4 -78 4 -2 7 3 7 11 0 20 26 21 34 1 3 -8
10 -15 16 -15 7 0 8 5 3 13 -4 6 -8 26 -8 42 0 25 -4 30 -27 33 -16 2 -29 -1
-29 -7z m51 -20 c0 -11 -26 -22 -34 -14 -12 12 -5 23 14 23 11 0 20 -4 20 -9z"/>
<path d="M5710 7285 c0 -41 2 -45 24 -45 26 0 56 24 56 43 -1 24 -28 47 -54
47 -24 0 -26 -3 -26 -45z m48 26 c19 -12 11 -55 -10 -59 -15 -3 -18 4 -18 32
0 37 5 42 28 27z"/>
<path d="M5820 7285 c0 -44 0 -45 33 -44 30 2 30 2 5 6 -34 5 -38 33 -5 34
l22 0 -23 10 c-27 10 -19 33 9 24 11 -4 19 -2 19 4 0 6 -13 11 -30 11 -29 0
-30 -2 -30 -45z"/>
<path d="M5500 7306 c-28 -35 11 -93 48 -70 35 22 22 84 -18 84 -10 0 -23 -7
-30 -14z m54 -19 c16 -25 -16 -56 -38 -37 -19 15 -20 32 -4 48 15 15 28 11 42
-11z"/>
<path d="M5921 7278 c1 -36 2 -39 9 -18 l8 25 7 -23 c6 -18 10 -20 21 -11 18
15 18 30 0 23 -9 -4 -16 2 -18 17 -2 12 -9 24 -15 27 -9 2 -13 -9 -12 -40z"/>
<path d="M5988 7308 c-3 -7 -3 -31 1 -53 l7 -40 7 44 c7 42 -4 78 -15 49z"/>
<path d="M6119 7264 c-14 -38 -11 -52 12 -59 11 -4 23 -5 26 -2 2 3 -5 8 -16
12 -12 3 -21 11 -21 16 0 6 9 7 20 4 11 -4 20 -2 20 4 0 6 -7 11 -15 11 -8 0
-15 5 -15 11 0 6 9 9 20 6 11 -3 20 -2 20 3 0 4 -9 10 -21 13 -15 4 -22 -1
-30 -19z"/>
<path d="M6271 7219 c-15 -43 -14 -57 3 -34 8 11 20 16 29 12 23 -9 43 19 27
38 -21 25 -47 18 -59 -16z m49 6 c10 -13 9 -15 -9 -15 -12 0 -21 6 -21 15 0 8
4 15 9 15 5 0 14 -7 21 -15z"/>
<path d="M6363 7178 c-9 -35 -9 -40 1 -25 18 23 23 22 41 -10 14 -24 16 -25
12 -5 -3 14 1 26 11 31 23 13 4 45 -29 49 -21 3 -26 -3 -36 -40z m57 17 c11
-13 8 -15 -14 -15 -25 0 -33 10 -19 23 10 11 19 8 33 -8z"/>
<path d="M5526 7195 c-60 -7 -113 -18 -118 -23 -16 -16 -26 -157 -17 -249 15
-162 49 -266 130 -398 143 -234 380 -385 650 -415 178 -20 337 11 502 98 111
58 201 132 277 227 64 81 136 215 127 238 -9 24 -238 191 -367 268 -216 128
-454 212 -712 250 -115 16 -351 19 -472 4z m45 -88 c-5 -5 -7 -15 -5 -22 3 -7
-4 -11 -18 -11 -28 1 -41 36 -19 52 18 14 56 -5 42 -19z m923 -100 c16 -15 7
-42 -14 -42 -20 0 -30 26 -16 42 14 16 15 16 30 0z m-564 -47 c0 -5 8 -10 18
-11 10 0 12 -3 5 -6 -7 -2 -13 -11 -13 -18 0 -16 -32 -14 -43 2 -4 7 -2 19 5
28 15 17 28 19 28 5z m348 -112 c12 -17 1 -43 -18 -43 -20 0 -30 26 -16 42 14
16 21 16 34 1z m-556 -33 c0 -5 -5 -11 -11 -13 -6 -2 -11 4 -11 13 0 9 5 15
11 13 6 -2 11 -8 11 -13z m-76 -35 c10 0 12 -5 7 -12 -4 -7 -6 -22 -4 -33 2
-16 1 -17 -13 -6 -8 7 -19 10 -24 7 -18 -11 -22 37 -4 50 9 7 19 8 20 3 2 -5
10 -9 18 -9z m540 -38 c1 -15 -5 -22 -16 -22 -12 0 -17 6 -15 18 2 9 4 21 4
25 2 18 26 -1 27 -21z m189 -11 c1 -13 -5 -18 -22 -18 -13 0 -21 2 -19 5 3 3
1 11 -5 19 -9 10 -8 13 5 13 9 0 16 5 16 12 0 20 23 -9 25 -31z m-829 -51 c0
-12 -8 -17 -23 -17 -12 0 -20 3 -18 8 3 4 0 11 -5 14 -7 5 -5 11 6 20 20 14
40 2 40 -25z m277 -20 c-2 -9 -13 -16 -23 -17 -13 -1 -17 3 -13 13 3 8 0 14
-6 14 -6 0 -3 8 7 18 15 15 18 16 28 3 6 -8 9 -22 7 -31z m411 31 c3 -5 -1
-11 -9 -15 -9 -3 -15 0 -15 9 0 16 16 20 24 6z m648 -68 c-4 -10 -17 -19 -30
-20 -14 -2 -21 1 -17 7 4 6 1 17 -5 25 -10 12 -9 15 4 15 9 0 16 8 16 17 0 14
3 14 20 -5 13 -14 17 -27 12 -39z m105 29 c8 -5 8 -12 -2 -25 -12 -17 -14 -17
-30 -1 -13 14 -14 19 -3 25 16 11 20 11 35 1z m-700 -72 c12 0 13 -3 3 -15 -6
-8 -9 -18 -6 -23 3 -5 -8 -9 -24 -9 -16 0 -27 4 -24 9 3 5 0 15 -6 23 -10 12
-9 15 3 15 8 0 18 8 22 18 8 16 8 16 12 0 3 -10 11 -18 20 -18z m-491 12 c15
-9 3 -37 -16 -37 -19 0 -31 28 -16 37 6 4 13 8 16 8 3 0 10 -4 16 -8z m1101
-23 c16 -16 5 -39 -17 -39 -22 0 -31 20 -16 37 14 15 19 16 33 2z m-948 -54
c6 3 11 1 11 -4 0 -6 -4 -11 -10 -11 -5 0 -10 -10 -10 -22 0 -17 -3 -19 -12
-10 -8 8 -15 8 -24 1 -9 -8 -11 -5 -7 10 3 12 1 21 -6 21 -6 0 -11 5 -11 11 0
5 5 7 10 4 6 -3 13 1 17 11 6 16 7 16 19 -1 7 -9 17 -14 23 -10z m899 -23 c4
-23 -4 -27 -26 -14 -15 10 -5 45 12 39 6 -2 12 -13 14 -25z m-378 -11 c0 -13
-15 -26 -31 -27 -17 -1 -22 27 -6 38 11 7 37 0 37 -11z m224 10 c7 -11 -3 -41
-14 -41 -11 0 -21 30 -14 41 3 5 9 9 14 9 5 0 11 -4 14 -9z m-94 -31 c0 -5 -5
-12 -11 -16 -14 -8 -33 11 -25 25 7 11 36 4 36 -9z m184 11 c9 -15 -18 -31
-34 -20 -13 8 -13 10 0 19 19 12 27 12 34 1z m-94 -62 c0 -5 5 -7 10 -4 6 3
10 2 10 -4 0 -5 -4 -12 -10 -16 -5 -3 -6 -13 -3 -23 6 -15 5 -15 -10 -3 -14
11 -17 11 -18 0 -1 -8 -4 -3 -8 11 -4 14 -2 30 4 37 13 15 25 16 25 2z m-162
-29 c12 0 13 -3 5 -11 -6 -6 -9 -17 -7 -23 2 -6 -6 -11 -21 -11 -15 0 -23 5
-21 11 2 6 -1 17 -7 23 -8 8 -7 11 6 11 9 0 17 6 18 13 0 10 2 10 6 0 2 -7 12
-13 21 -13z m168 -71 c10 -17 -13 -36 -27 -22 -12 12 -4 33 11 33 5 0 12 -5
16 -11z m-419 -38 c0 -9 -9 -17 -18 -17 -10 0 -16 4 -13 7 2 4 0 10 -6 14 -6
4 -5 11 3 20 15 16 36 2 34 -24z"/>
<path d="M6472 7168 c-17 -17 -15 -53 3 -68 12 -10 21 -10 40 -2 40 19 29 82
-15 82 -9 0 -21 -5 -28 -12z m53 -28 c0 -18 -6 -26 -23 -28 -27 -4 -40 22 -22
44 19 22 45 13 45 -16z"/>
<path d="M6575 7124 c-23 -24 -19 -59 9 -72 19 -8 27 -8 36 3 13 15 6 35 -12
35 -6 0 -5 -6 3 -16 11 -14 10 -15 -11 -12 -17 2 -26 10 -28 26 -4 28 23 40
50 23 16 -10 19 -10 16 0 -7 22 -46 30 -63 13z"/>
<path d="M6665 7060 c-9 -18 -14 -34 -11 -38 3 -3 6 0 6 6 0 7 7 12 15 12 9 0
15 -9 15 -25 0 -14 5 -25 11 -25 6 0 8 7 5 16 -4 10 1 22 11 30 14 10 16 17 7
31 -18 30 -41 27 -59 -7z m46 -5 c-1 -15 -24 -12 -29 3 -3 9 2 13 12 10 10 -1
17 -7 17 -13z"/>
<path d="M6751 7005 l-20 -35 25 -16 c13 -9 27 -14 30 -11 3 3 -4 10 -15 17
-31 16 -26 34 6 25 l27 -6 -19 22 -20 22 30 -7 c28 -6 29 -5 11 9 -27 21 -31
20 -55 -20z"/>
<path d="M6846 6972 c-3 -5 1 -18 9 -28 8 -10 15 -22 15 -26 0 -15 -29 -8 -39
10 -10 16 -10 16 -11 0 0 -23 38 -44 53 -29 7 7 7 18 -2 37 -15 33 -5 46 16
19 15 -20 15 -20 11 0 -3 21 -42 33 -52 17z"/>
<path d="M6937 6918 c-17 -9 -17 -11 -2 -35 22 -33 9 -45 -16 -14 -14 17 -19
19 -19 8 0 -9 10 -23 22 -31 20 -14 24 -14 37 -1 13 13 12 17 -4 35 -21 23
-13 39 10 20 8 -7 15 -8 15 -2 0 19 -24 31 -43 20z"/>
<path d="M6994 6834 c-16 -24 -16 -26 4 -46 20 -20 22 -20 46 -4 29 18 31 28
16 57 -15 27 -46 24 -66 -7z m56 1 c16 -19 -3 -45 -31 -45 -22 0 -26 29 -7 48
16 16 23 15 38 -3z"/>
<path d="M7725 5040 c-3 -6 1 -7 9 -4 18 7 21 14 7 14 -6 0 -13 -4 -16 -10z"/>
<path d="M4445 4740 c-3 -6 1 -7 9 -4 18 7 21 14 7 14 -6 0 -13 -4 -16 -10z"/>
<path d="M4544 4680 c0 -13 4 -16 10 -10 7 7 7 13 0 20 -6 6 -10 3 -10 -10z"/>
<path d="M4595 4572 c26 -29 50 -52 53 -52 7 0 -81 94 -92 99 -6 2 12 -19 39
-47z"/>
<path d="M4612 4593 c24 -25 38 -32 18 -8 -6 8 -9 18 -7 22 3 5 -3 9 -13 9
-18 0 -18 -2 2 -23z"/>
<path d="M4705 4520 c2 -27 10 -33 12 -10 1 11 -2 22 -6 24 -4 3 -7 -4 -6 -14z"/>
<path d="M4676 4515 c-9 -26 -7 -32 5 -12 6 10 9 21 6 23 -2 3 -7 -2 -11 -11z"/>
<path d="M4735 4450 c-4 -6 -1 -18 6 -26 11 -14 14 -13 22 1 5 9 6 19 3 22 -3
4 -6 1 -6 -5 0 -7 -5 -12 -11 -12 -6 0 -9 7 -5 15 6 17 0 20 -9 5z"/>
<path d="M4834 4360 c0 -13 4 -16 10 -10 7 7 7 13 0 20 -6 6 -10 3 -10 -10z"/>
<path d="M4852 4334 c-7 -8 -8 -14 -3 -14 10 0 25 19 20 25 -2 1 -10 -3 -17
-11z"/>
<path d="M4895 4290 c-8 -13 3 -30 18 -30 7 0 6 4 -3 10 -8 5 -11 12 -7 16 4
5 19 -4 33 -19 14 -15 28 -27 31 -27 4 0 -6 14 -22 30 -31 32 -40 36 -50 20z"/>
<path d="M4945 4290 c3 -5 11 -10 16 -10 6 0 7 5 4 10 -3 6 -11 10 -16 10 -6
0 -7 -4 -4 -10z"/>
<path d="M4940 4226 c0 -2 8 -10 18 -17 15 -13 16 -12 3 4 -13 16 -21 21 -21
13z"/>
<path d="M4987 4207 c3 -4 12 -6 21 -2 8 3 19 0 24 -7 7 -10 9 -9 5 2 -2 8
-15 15 -30 15 -14 1 -23 -3 -20 -8z"/>
<path d="M5330 4030 c0 -5 7 -10 15 -10 8 0 15 5 15 10 0 6 -7 10 -15 10 -8 0
-15 -4 -15 -10z"/>
<path d="M5173 4003 c9 -9 19 -14 23 -11 10 10 -6 28 -24 28 -15 0 -15 -1 1
-17z"/>
<path d="M5235 3960 c-4 -6 1 -19 12 -29 15 -15 21 -15 31 -5 14 16 16 34 3
34 -5 0 -16 3 -24 6 -8 3 -18 0 -22 -6z m34 -9 c7 -5 9 -11 5 -14 -5 -3 -15 1
-22 9 -14 16 -5 18 17 5z"/>
<path d="M7190 3919 c0 -5 5 -7 10 -4 6 3 10 8 10 11 0 2 -4 4 -10 4 -5 0 -10
-5 -10 -11z"/>
<path d="M7110 3900 c0 -5 5 -10 10 -10 6 0 10 5 10 10 0 6 -4 10 -10 10 -5 0
-10 -4 -10 -10z"/>
<path d="M7136 3875 c-10 -7 -16 -19 -14 -26 2 -7 11 0 21 15 20 30 19 31 -7
11z"/>
<path d="M7041 3814 c-12 -14 -12 -17 0 -25 12 -8 12 -11 -1 -19 -8 -5 -11
-10 -6 -10 6 0 20 10 32 21 20 18 21 24 9 35 -17 17 -17 17 -34 -2z m29 -14
c0 -5 -4 -10 -10 -10 -5 0 -10 5 -10 10 0 6 5 10 10 10 6 0 10 -4 10 -10z"/>
<path d="M5380 3800 c0 -5 5 -10 10 -10 6 0 10 5 10 10 0 6 -4 10 -10 10 -5 0
-10 -4 -10 -10z"/>
<path d="M6945 3737 c-4 -10 -5 -21 -1 -24 10 -10 18 4 13 24 -4 17 -4 17 -12
0z"/>
<path d="M5650 3560 c0 -5 5 -10 10 -10 6 0 10 5 10 10 0 6 -4 10 -10 10 -5 0
-10 -4 -10 -10z"/>
<path d="M6767 3533 c-12 -11 -8 -23 8 -23 8 0 15 7 15 15 0 16 -12 20 -23 8z"/>
<path d="M5894 3311 c21 -23 26 -26 26 -11 0 5 -10 15 -22 21 -23 12 -23 12
-4 -10z"/>
<path d="M5970 3240 c0 -5 5 -10 10 -10 6 0 10 5 10 10 0 6 -4 10 -10 10 -5 0
-10 -4 -10 -10z"/>
<path d="M7372 2875 c4 -4 3 -14 -4 -22 -6 -7 -9 -15 -7 -18 3 -2 10 4 17 15
9 15 9 21 -1 26 -6 4 -9 4 -5 -1z"/>
<path d="M7089 2473 c-13 -16 -12 -17 4 -4 16 13 21 21 13 21 -2 0 -10 -8 -17
-17z"/>
<path d="M6339 1483 c-13 -16 -12 -17 4 -4 16 13 21 21 13 21 -2 0 -10 -8 -17
-17z"/>
</g>
</svg>
